<svg width="740" height="312" viewBox="0 0 740 312" fill="none" xmlns="http://www.w3.org/2000/svg">
<g clip-path="url(#clip0_75_1402)">
<path d="M200.642 108.893C200.642 108.893 200.642 167.925 200.642 208.821C198.864 249.184 226.246 282.789 289.901 282.789" stroke="#257CFF" stroke-width="54.0536"/>
<path d="M289.901 282.789C226.246 282.789 198.864 249.184 200.642 208.821V167.926" stroke="url(#paint0_linear_75_1402)" stroke-opacity="0.42" stroke-width="54.0536"/>
<path d="M200.56 14.2998C200.56 14.2998 200.56 126.852 200.56 195.486C198.604 252.74 163.221 283.323 114.68 283.323C66.1381 283.323 26.851 243.789 26.6647 195.131C26.4944 150.66 60.8037 107.649 99.566 107.649H172.289H442.023" stroke="#257CFF" stroke-width="54.0536"/>
<path fill-rule="evenodd" clip-rule="evenodd" d="M284.129 134.676H227.586V80.6222H284.129V134.676Z" fill="url(#paint1_linear_75_1402)"/>
<path fill-rule="evenodd" clip-rule="evenodd" d="M116.988 80.6224H173.531V134.676H116.988V80.6224Z" fill="url(#paint2_linear_75_1402)"/>
<path d="M289.82 282.789C289.82 282.789 317.038 282.789 355.178 282.789C393.319 282.789 411.797 267.523 411.797 242.783C411.797 187.642 310.746 206.587 310.746 148.536C310.746 113.284 351.06 107.826 351.06 107.826H442.024" stroke="#257CFF" stroke-width="54.0536"/>
<path d="M414.645 243.672C414.645 188.447 310.805 206.737 310.805 148.597C310.805 113.293 351.159 107.826 351.159 107.826" stroke="url(#paint3_linear_75_1402)" stroke-width="54.0536"/>
<path fill-rule="evenodd" clip-rule="evenodd" d="M442.024 134.676H285.197V80.6223H442.024V134.676Z" fill="#257CFF"/>
<rect x="253.369" y="56.6194" width="15.8249" height="15.8249" fill="#DA0568"/>
<rect x="237.543" y="56.6194" width="15.8249" height="15.8249" fill="#003871"/>
<rect x="253.369" y="40.7946" width="15.8249" height="15.8249" fill="#059B2F"/>
<rect x="237.543" y="40.7946" width="15.8249" height="15.8249" fill="#E36644"/>
<rect x="269.193" y="56.6198" width="15.8249" height="15.8249" fill="#D7DB05"/>
<rect x="237.541" y="24.969" width="15.8249" height="15.8249" fill="#7400A3"/>
</g>
<line x1="473.242" y1="80.8135" x2="473.242" y2="311.952" stroke="#257CFF" stroke-width="1.68714"/>
<path d="M508.21 147.147V83.657H529.252C533.636 83.657 537.733 84.4884 541.542 86.1513C545.382 87.7839 548.753 90.0665 551.655 92.9992C554.588 95.9016 556.871 99.2726 558.503 103.112C560.166 106.922 560.997 111.018 560.997 115.402C560.997 119.786 560.166 123.898 558.503 127.738C556.871 131.547 554.588 134.918 551.655 137.851C548.753 140.753 545.382 143.036 541.542 144.699C537.733 146.331 533.636 147.147 529.252 147.147H508.21ZM519.275 136.082H529.252C532.064 136.082 534.709 135.553 537.188 134.495C539.698 133.406 541.905 131.925 543.81 130.05C545.714 128.146 547.211 125.954 548.299 123.475C549.388 120.965 549.932 118.274 549.932 115.402C549.932 112.53 549.388 109.854 548.299 107.375C547.211 104.896 545.714 102.704 543.81 100.799C541.905 98.8947 539.713 97.4133 537.234 96.3551C534.755 95.2667 532.094 94.7225 529.252 94.7225H519.275V136.082ZM613.589 83.657V94.7225H594.179V147.147H583.113V94.7225H563.704V83.657H613.589ZM644.885 148.327C641.378 148.327 638.007 147.782 634.772 146.694C631.567 145.575 628.755 143.988 626.337 141.932C623.918 139.846 622.179 137.352 621.121 134.449L631.507 130.64C631.93 131.849 632.791 132.953 634.091 133.951C635.392 134.948 636.979 135.749 638.853 136.354C640.728 136.959 642.738 137.261 644.885 137.261C647.092 137.261 649.148 136.929 651.053 136.263C652.987 135.568 654.544 134.616 655.724 133.406C656.903 132.167 657.492 130.731 657.492 129.098C657.492 127.435 656.872 126.075 655.633 125.017C654.393 123.928 652.806 123.066 650.871 122.432C648.936 121.797 646.941 121.313 644.885 120.98C640.38 120.285 636.344 119.212 632.776 117.76C629.209 116.309 626.382 114.299 624.296 111.729C622.24 109.159 621.212 105.833 621.212 101.752C621.212 97.9121 622.316 94.5562 624.523 91.684C626.73 88.8118 629.632 86.5745 633.23 84.9722C636.828 83.3698 640.713 82.5686 644.885 82.5686C648.362 82.5686 651.718 83.1128 654.953 84.2012C658.188 85.2896 661.014 86.8769 663.433 88.963C665.882 91.0491 667.636 93.5585 668.694 96.4911L658.263 100.255C657.84 99.0459 656.978 97.9424 655.678 96.9447C654.378 95.9469 652.791 95.1609 650.916 94.5864C649.042 93.9818 647.031 93.6794 644.885 93.6794C642.738 93.6492 640.698 93.9969 638.763 94.7225C636.858 95.4179 635.301 96.3702 634.091 97.5796C632.882 98.7889 632.277 100.18 632.277 101.752C632.277 103.777 632.837 105.304 633.955 106.332C635.104 107.36 636.631 108.116 638.536 108.6C640.441 109.053 642.557 109.476 644.885 109.869C649.118 110.535 653.033 111.653 656.631 113.225C660.228 114.798 663.116 116.899 665.293 119.529C667.469 122.129 668.558 125.319 668.558 129.098C668.558 132.938 667.469 136.309 665.293 139.211C663.116 142.083 660.228 144.321 656.631 145.923C653.033 147.525 649.118 148.327 644.885 148.327Z" fill="#257CFF"/>
<path d="M556.281 166.059V177.125H536.871V229.55H525.806V177.125H506.396V166.059H556.281ZM565.34 229.55V166.059H605.158V177.125H576.406V190.004H599.217V201.07H576.406V218.484H605.158V229.55H565.34ZM644.241 230.729C639.948 230.729 635.911 229.882 632.132 228.189C628.353 226.466 625.027 224.092 622.155 221.069C619.313 218.046 617.076 214.554 615.443 210.593C613.841 206.602 613.04 202.339 613.04 197.804C613.04 193.239 613.841 188.976 615.443 185.016C617.076 181.025 619.313 177.533 622.155 174.54C625.027 171.516 628.353 169.158 632.132 167.465C635.911 165.742 639.948 164.88 644.241 164.88C649.38 164.88 654.112 166.074 658.435 168.463C662.759 170.821 666.341 173.98 669.183 177.941L659.297 183.247C657.513 181.04 655.291 179.271 652.631 177.941C650 176.611 647.204 175.945 644.241 175.945C641.459 175.945 638.844 176.52 636.395 177.669C633.946 178.787 631.8 180.36 629.955 182.385C628.111 184.381 626.675 186.709 625.647 189.369C624.619 191.999 624.105 194.811 624.105 197.804C624.105 200.828 624.619 203.655 625.647 206.285C626.705 208.915 628.156 211.243 630.001 213.269C631.845 215.264 633.976 216.836 636.395 217.985C638.844 219.104 641.459 219.663 644.241 219.663C647.264 219.663 650.076 218.998 652.676 217.668C655.306 216.307 657.513 214.523 659.297 212.316L669.183 217.668C666.341 221.598 662.759 224.758 658.435 227.146C654.112 229.534 649.38 230.729 644.241 230.729ZM715.111 166.059H726.176V229.55H715.111V201.07H688.807V229.55H677.742V166.059H688.807V190.004H715.111V166.059Z" fill="#257CFF"/>
<path d="M509.57 311.952V248.461H520.636V311.952H509.57ZM532.922 311.952V248.461H544.894L571.697 291.952V248.461H582.762V311.952H570.835L543.987 268.461V311.952H532.922ZM593.684 311.952V248.461H614.727C619.111 248.461 623.207 249.293 627.017 250.955C630.856 252.588 634.228 254.871 637.13 257.803C640.063 260.706 642.345 264.077 643.978 267.916C645.641 271.726 646.472 275.823 646.472 280.206C646.472 284.59 645.641 288.702 643.978 292.542C642.345 296.351 640.063 299.722 637.13 302.655C634.228 305.557 630.856 307.84 627.017 309.503C623.207 311.135 619.111 311.952 614.727 311.952H593.684ZM604.75 300.886H614.727C617.539 300.886 620.184 300.357 622.663 299.299C625.173 298.211 627.38 296.729 629.284 294.855C631.189 292.95 632.686 290.758 633.774 288.279C634.862 285.769 635.407 283.079 635.407 280.206C635.407 277.334 634.862 274.659 633.774 272.179C632.686 269.7 631.189 267.508 629.284 265.604C627.38 263.699 625.188 262.217 622.709 261.159C620.229 260.071 617.569 259.527 614.727 259.527H604.75V300.886ZM655.187 311.952V248.461H666.253V311.952H655.187ZM699.763 248.461H712.506L735.59 311.952H723.844L719.762 300.705H692.552L688.471 311.952H676.725L699.763 248.461ZM696.588 289.639H715.681L706.112 263.472L696.588 289.639Z" fill="#257CFF"/>
<defs>
<linearGradient id="paint0_linear_75_1402" x1="200.561" y1="197.264" x2="270.261" y2="298.792" gradientUnits="userSpaceOnUse">
<stop offset="0.015625" stop-color="white"/>
<stop offset="0.223847" stop-opacity="0.52"/>
<stop offset="1" stop-color="#257CFF" stop-opacity="0"/>
</linearGradient>
<linearGradient id="paint1_linear_75_1402" x1="228.779" y1="107.649" x2="264.208" y2="107.649" gradientUnits="userSpaceOnUse">
<stop stop-color="#201F1F" stop-opacity="0.26"/>
<stop offset="1" stop-color="#257CFF" stop-opacity="0"/>
</linearGradient>
<linearGradient id="paint2_linear_75_1402" x1="172.338" y1="107.649" x2="136.91" y2="107.649" gradientUnits="userSpaceOnUse">
<stop stop-color="#201F1F" stop-opacity="0.26"/>
<stop offset="1" stop-color="#257CFF" stop-opacity="0"/>
</linearGradient>
<linearGradient id="paint3_linear_75_1402" x1="338.093" y1="110.335" x2="339.355" y2="183.078" gradientUnits="userSpaceOnUse">
<stop stop-opacity="0.27"/>
<stop offset="1" stop-color="#257CFF" stop-opacity="0"/>
</linearGradient>
<clipPath id="clip0_75_1402">
<rect width="442.031" height="311.164" fill="white" transform="translate(0 0.78772)"/>
</clipPath>
</defs>
</svg>
