<svg width="1243" height="837" viewBox="0 0 1243 837" fill="none" xmlns="http://www.w3.org/2000/svg">
<g clip-path="url(#clip0_36_24)">
<path d="M564.228 266C564.228 266 564.228 432 564.228 547C559.228 660.5 636.228 755 815.228 755" stroke="#257CFF" stroke-width="152"/>
<path d="M815.228 755C636.228 755 559.228 660.5 564.228 547V432" stroke="url(#paint0_linear_36_24)" stroke-opacity="0.42" stroke-width="152"/>
<path d="M564 0C564 0 564 316.5 564 509.5C558.5 670.5 459.002 756.5 322.502 756.5C186.002 756.5 75.5258 645.328 75.0018 508.5C74.5229 383.447 171.001 262.5 280.002 262.5H484.5L1243 262.5" stroke="#257CFF" stroke-width="152"/>
<path fill-rule="evenodd" clip-rule="evenodd" d="M799 338.5H640V186.5H799V338.5Z" fill="url(#paint1_linear_36_24)"/>
<path fill-rule="evenodd" clip-rule="evenodd" d="M329 186.5H488V338.5H329V186.5Z" fill="url(#paint2_linear_36_24)"/>
<path d="M815 755C815 755 891.536 755 998.788 755C1106.04 755 1158 712.072 1158 642.5C1158 487.443 873.844 540.718 873.844 377.476C873.844 278.348 987.207 263 987.207 263H1243" stroke="#257CFF" stroke-width="152"/>
<path d="M1166 645C1166 489.707 874 541.138 874 377.648C874 278.371 987.478 263 987.478 263" stroke="url(#paint3_linear_36_24)" stroke-width="152"/>
<path fill-rule="evenodd" clip-rule="evenodd" d="M1243 338.5H802.002V186.5H1243V338.5Z" fill="#257CFF"/>
<rect x="712.689" y="119.364" width="44.5" height="44.5" fill="#DA0568"/>
<rect x="668.189" y="119.364" width="44.5" height="44.5" fill="#003871"/>
<rect x="712.689" y="74.8643" width="44.5" height="44.5" fill="#059B2F"/>
<rect x="668.189" y="74.8643" width="44.5" height="44.5" fill="#E36644"/>
<rect x="757.189" y="119.364" width="44.5" height="44.5" fill="#D7DB05"/>
<rect x="668.189" y="30.3643" width="44.5" height="44.5" fill="#7400A3"/>
</g>
<defs>
<linearGradient id="paint0_linear_36_24" x1="564" y1="514.5" x2="760" y2="800" gradientUnits="userSpaceOnUse">
<stop offset="0.015625" stop-color="white"/>
<stop offset="0.223847" stop-opacity="0.76"/>
<stop offset="1" stop-color="#257CFF" stop-opacity="0"/>
</linearGradient>
<linearGradient id="paint1_linear_36_24" x1="643.354" y1="262.5" x2="742.981" y2="262.5" gradientUnits="userSpaceOnUse">
<stop stop-color="#201F1F" stop-opacity="0.41"/>
<stop offset="1" stop-color="#257CFF" stop-opacity="0"/>
</linearGradient>
<linearGradient id="paint2_linear_36_24" x1="484.646" y1="262.5" x2="385.019" y2="262.5" gradientUnits="userSpaceOnUse">
<stop stop-color="#201F1F" stop-opacity="0.41"/>
<stop offset="1" stop-color="#257CFF" stop-opacity="0"/>
</linearGradient>
<linearGradient id="paint3_linear_36_24" x1="950.734" y1="270.053" x2="954.284" y2="474.607" gradientUnits="userSpaceOnUse">
<stop stop-opacity="0.61"/>
<stop offset="1" stop-color="#257CFF" stop-opacity="0"/>
</linearGradient>
<clipPath id="clip0_36_24">
<rect width="1243" height="837" fill="white"/>
</clipPath>
</defs>
</svg>
